<?xml version="1.0" encoding="utf-8"?>
<!-- Generator: Adobe Illustrator 18.0.0, SVG Export Plug-In . SVG Version: 6.00 Build 0)  -->
<!DOCTYPE svg PUBLIC "-//W3C//DTD SVG 1.1//EN" "http://www.w3.org/Graphics/SVG/1.1/DTD/svg11.dtd">
<svg version="1.1" id="SemiBold" xmlns="http://www.w3.org/2000/svg" xmlns:xlink="http://www.w3.org/1999/xlink" x="0px" y="0px"
	 width="135px" height="49px" viewBox="486.5 650 135 49" enable-background="new 486.5 650 135 49" xml:space="preserve">
<g>
	<path stroke="#FFFFFF" stroke-width="0.1806" stroke-miterlimit="10" d="M616.5,689.7c0,3.8-2.8,6.2-6.6,6.2H498.4
		c-3.8,0-6.9-3.1-6.9-6.9V660c0-3.8,3.1-6.9,6.9-6.9h111.5c3.8,0,6.6,3.1,6.6,6.9L616.5,689.7L616.5,689.7z"/>
	<g>
		<g>
			<path fill="#FFFFFF" d="M576.9,683.9l-0.9,0.9c-0.2,0.1-0.4,0.2-0.6,0.3c-0.6,0.3-1.3,0.3-1.9,0.3c-0.6,0-1.6-0.1-2.6-0.8
				c-1.4-1-2-2.7-2-4.1c0-3,2.5-4.5,4.5-4.5c0.7,0,1.5,0.2,2,0.5c1,0.6,1.2,1.5,1.4,1.9l-4.6,1.9l-1.5,0.1c0.5,2.5,2.2,4,4.1,4
				C575.6,684.4,576.3,684.2,576.9,683.9C576.9,683.8,577,683.7,576.9,683.9z M574.1,678.9c0.3-0.1,0.6-0.2,0.6-0.5
				c0-0.8-0.9-1.7-1.9-1.7c-0.8,0-2.3,0.6-2.3,2.7c0,0.3,0.1,0.7,0.1,1L574.1,678.9z"/>
			<path fill="#FFFFFF" d="M567.3,683.7c0,0.8,0.1,0.9,0.8,0.9c0.3,0.1,0.7,0.1,1,0.1l-0.7,0.4h-3.4c0.5-0.6,0.5-0.6,0.5-1v-0.5
				v-11.7h-1.5l1.5-0.7h2.8c-0.6,0.3-0.8,0.6-0.9,1.3V683.7z"/>
			<path fill="#FFFFFF" d="M561.9,677c0.5,0.3,1.4,1.2,1.4,2.7c0,1.5-0.8,2.2-1.6,2.8c-0.2,0.2-0.5,0.5-0.5,1c0,0.4,0.3,0.7,0.5,0.9
				l0.7,0.5c0.9,0.8,1.6,1.4,1.6,2.7c0,1.9-1.8,3.7-5.2,3.7c-2.8,0-4.2-1.3-4.2-2.8c0-0.7,0.3-1.7,1.5-2.4c1.2-0.8,2.8-0.9,3.7-0.9
				c-0.3-0.3-0.6-0.8-0.6-1.3c0-0.3,0.1-0.5,0.2-0.8c-0.2,0-0.4,0.1-0.6,0.1c-2.1,0-3.3-1.6-3.3-3.1c0-0.9,0.4-1.9,1.3-2.6
				c1.1-0.9,2.4-1.1,3.5-1.1h4.1l-1.3,0.7h-1.2V677z M560.5,685.7c-0.2,0-0.2,0-0.5,0c-0.2,0-1.2,0.1-2,0.3c-0.4,0.2-1.7,0.6-1.7,2
				c0,1.4,1.3,2.4,3.4,2.4c1.9,0,2.9-0.9,2.9-2.1C562.7,687.3,562,686.8,560.5,685.7z M561.1,681.9c0.5-0.5,0.5-1.1,0.5-1.5
				c0-1.4-0.8-3.6-2.5-3.6c-0.5,0-1,0.2-1.4,0.6s-0.4,0.9-0.4,1.5c0,1.3,0.8,3.5,2.4,3.5C560.3,682.5,560.8,682.3,561.1,681.9z"/>
			<path fill="#FFFFFF" d="M549.8,685.4c-3.1,0-4.8-2.4-4.8-4.7c0-2.6,2.1-4.8,5.1-4.8c2.9,0,4.7,2.3,4.7,4.7
				C554.8,683,553,685.4,549.8,685.4z M552.2,683.8c0.5-0.6,0.6-1.4,0.6-2.2c0-1.7-0.8-5-3.3-5c-0.6,0-1.3,0.2-1.7,0.6
				c-0.8,0.7-0.9,1.6-0.9,2.4c0,1.9,0.9,5.1,3.3,5.1C551,684.8,551.7,684.4,552.2,683.8z"/>
			<path fill="#FFFFFF" d="M539.3,685.4c-3.1,0-4.8-2.4-4.8-4.7c0-2.6,2.1-4.8,5.1-4.8c2.9,0,4.7,2.3,4.7,4.7
				C544.3,683,542.5,685.4,539.3,685.4z M541.8,683.8c0.5-0.6,0.6-1.4,0.6-2.2c0-1.7-0.8-5-3.3-5c-0.6,0-1.3,0.2-1.7,0.6
				c-0.8,0.7-0.9,1.6-0.9,2.4c0,1.9,1,5.1,3.3,5.1C540.5,684.8,541.3,684.4,541.8,683.8z"/>
			<path fill="#FFFFFF" d="M533.3,684.7l-2.6,0.6c-1,0.2-2,0.3-3,0.3c-5.1,0-7-3.7-7-6.7c0-3.5,2.7-6.9,7.4-6.9c1,0,1.9,0.2,2.8,0.4
				c1.4,0.4,2,0.9,2.4,1.2l-1.5,1.5l-0.6,0.1l0.5-0.8c-0.6-0.6-1.7-1.7-4-1.7c-2.9,0-5.1,2.2-5.1,5.4c0,3.4,2.5,6.7,6.5,6.7
				c1.2,0,1.8-0.2,2.3-0.5v-3l-2.8,0.2l1.5-0.8h3.9l-0.5,0.5c-0.1,0.2-0.1,0.3-0.2,0.4c0,0.2-0.1,0.7-0.1,0.9L533.3,684.7
				L533.3,684.7z"/>
		</g>
		<g>
			<path fill="#FFFFFF" d="M582.6,683.9v5h-1v-12.7h1v1.5c0.6-0.9,1.8-1.7,3.2-1.7c2.4,0,4.1,1.9,4.1,4.8c0,2.9-1.7,4.8-4.1,4.8
				C584.5,685.7,583.3,685,582.6,683.9z M588.8,680.8c0-2.2-1.2-4-3.2-4c-1.3,0-2.5,1-3,1.9v4.1c0.5,0.9,1.7,1.9,3,1.9
				C587.7,684.7,588.8,683,588.8,680.8z"/>
			<path fill="#FFFFFF" d="M591.3,685.4v-12.7h1v12.7H591.3z"/>
			<path fill="#FFFFFF" d="M603.4,688.1c0.2,0.1,0.6,0.2,0.8,0.2c0.6,0,1-0.2,1.4-1.1l0.7-1.6l-3.9-9.3h1.1l3.4,8l3.3-8h1.1
				l-4.7,11.2c-0.5,1.2-1.3,1.7-2.3,1.7c-0.3,0-0.8-0.1-1-0.1L603.4,688.1z"/>
			<path fill="#FFFFFF" d="M600.5,685.4c-0.1-0.3-0.1-0.6-0.2-0.8c-0.1-0.2-0.1-0.5-0.1-0.7c-0.3,0.5-0.8,0.9-1.5,1.2
				c-0.6,0.3-1.2,0.5-2,0.5c-1,0-1.7-0.2-2.3-0.7c-0.5-0.5-0.8-1.2-0.8-2s0.4-1.5,1.2-2c0.8-0.5,1.8-0.8,3-0.8h2.3v-1.2
				c0-0.6-0.2-1.2-0.7-1.6c-0.5-0.3-1.1-0.6-1.9-0.6c-0.8,0-1.3,0.2-1.8,0.5c-0.5,0.3-0.7,0.8-0.7,1.3h-1v-0.1
				c-0.1-0.7,0.3-1.3,0.9-1.9c0.7-0.5,1.6-0.8,2.6-0.8c1.1,0,2,0.2,2.6,0.8c0.6,0.5,1,1.3,1,2.2v4.5c0,0.3,0,0.6,0.1,0.9
				c0.1,0.3,0.1,0.6,0.2,0.9h-1V685.4z M597,684.7c0.9,0,1.5-0.2,2.1-0.6c0.6-0.3,1-0.9,1.3-1.5v-1.7H598c-0.9,0-1.6,0.2-2.2,0.6
				c-0.6,0.4-0.9,0.9-0.9,1.5c0,0.5,0.2,0.9,0.6,1.3C595.8,684.5,596.3,684.7,597,684.7z"/>
		</g>
	</g>
	<g>
		<polygon fill="none" points="507.7,680.3 510.9,677.1 510.9,677.1 507.7,680.3 497.5,670.1 497.5,670.1 507.7,680.3 497.5,690.5 
			497.5,690.5 507.7,680.3 510.9,683.5 510.9,683.5 		"/>
		
			<linearGradient id="SVGID_1_" gradientUnits="userSpaceOnUse" x1="566.9895" y1="1838.6921" x2="564.2106" y2="1840.4313" gradientTransform="matrix(3.4138 3.4138 3.4138 -3.4138 -7706.9893 5020.7954)">
			<stop  offset="0" style="stop-color:#D6FFA1"/>
			<stop  offset="0.3264" style="stop-color:#93E2A7"/>
			<stop  offset="1" style="stop-color:#00A3B5"/>
		</linearGradient>
		<path fill="url(#SVGID_1_)" d="M510.9,677.1l-12.4-6.9c-0.3-0.2-0.7-0.2-0.9-0.2l10.2,10.2L510.9,677.1z"/>
		
			<linearGradient id="SVGID_2_" gradientUnits="userSpaceOnUse" x1="565.3735" y1="1840.1809" x2="568.9766" y2="1839.2391" gradientTransform="matrix(3.4138 3.4138 3.4138 -3.4138 -7706.9893 5020.7954)">
			<stop  offset="0" style="stop-color:#FF177B"/>
			<stop  offset="0.6721" style="stop-color:#FFA976"/>
			<stop  offset="1" style="stop-color:#FFEC73"/>
		</linearGradient>
		<path fill="url(#SVGID_2_)" d="M510.9,683.5l4.2-2.3c0.9-0.5,0.9-1.2,0-1.7l-4.2-2.3l-3.2,3.2L510.9,683.5z"/>
		
			<linearGradient id="SVGID_3_" gradientUnits="userSpaceOnUse" x1="567.3789" y1="1837.3624" x2="563.4719" y2="1839.6611" gradientTransform="matrix(3.4138 3.4138 3.4138 -3.4138 -7706.9893 5020.7954)">
			<stop  offset="0" style="stop-color:#63FFD4"/>
			<stop  offset="0.4854" style="stop-color:#32A0BA"/>
			<stop  offset="0.8349" style="stop-color:#1262A9"/>
			<stop  offset="1" style="stop-color:#064AA2"/>
		</linearGradient>
		<path fill="url(#SVGID_3_)" d="M497.5,670.1c-0.3,0.1-0.6,0.5-0.6,1.1v18.2c0,0.6,0.2,0.9,0.6,1l10.2-10.2L497.5,670.1z"/>
		
			<linearGradient id="SVGID_4_" gradientUnits="userSpaceOnUse" x1="568.8082" y1="1839.1903" x2="566.4025" y2="1836.021" gradientTransform="matrix(3.4138 3.4138 3.4138 -3.4138 -7706.9893 5020.7954)">
			<stop  offset="0" style="stop-color:#FF4521"/>
			<stop  offset="0.3411" style="stop-color:#D43E65"/>
			<stop  offset="0.7935" style="stop-color:#9F36B9"/>
			<stop  offset="1" style="stop-color:#8A33DB"/>
		</linearGradient>
		<path fill="url(#SVGID_4_)" d="M497.5,690.5c0.3,0.1,0.6,0.1,0.9-0.2l12.4-6.8l-3.2-3.2L497.5,690.5z"/>
	</g>
	<g>
		<g>
			<path fill="#FFFFFF" d="M520.6,662.3c0-2,1.5-3.2,3.3-3.2c1.2,0,2,0.6,2.5,1.3l-0.9,0.5c-0.3-0.5-0.9-0.8-1.6-0.8
				c-1.2,0-2.2,0.9-2.2,2.3c0,1.3,0.9,2.3,2.2,2.3c0.6,0,1.2-0.3,1.5-0.6v-1h-1.8v-0.9h2.9v2.3c-0.6,0.7-1.5,1.2-2.6,1.2
				C522,665.5,520.6,664.2,520.6,662.3z"/>
			<path fill="#FFFFFF" d="M527.7,665.4v-6.2h4.2v0.9h-3.1v1.6h3.1v0.9h-3.1v1.7h3.1v0.9L527.7,665.4L527.7,665.4z"/>
			<path fill="#FFFFFF" d="M535,665.4v-5.2h-1.9v-0.9h4.8v0.9h-1.9v5.2H535z"/>
			<path fill="#FFFFFF" d="M541.7,665.4v-6.2h1.1v6.2C542.8,665.4,541.7,665.4,541.7,665.4z"/>
			<path fill="#FFFFFF" d="M545.9,665.4v-5.2H544v-0.9h4.8v0.9H547v5.2H545.9z"/>
			<path fill="#FFFFFF" d="M552.4,662.3c0-1.9,1.3-3.2,3.2-3.2s3.2,1.3,3.2,3.2s-1.3,3.2-3.2,3.2
				C553.7,665.5,552.4,664.1,552.4,662.3z M557.6,662.3c0-1.3-0.8-2.3-2-2.3c-1.3,0-2,0.9-2,2.3c0,1.3,0.8,2.3,2,2.3
				C556.8,664.5,557.6,663.5,557.6,662.3z"/>
			<path fill="#FFFFFF" d="M564.3,665.4L561,661v4.4h-1.1v-6.2h1.1l3.2,4.3v-4.3h1.1v6.2C565.3,665.4,564.3,665.4,564.3,665.4z"/>
		</g>
	</g>
</g>
</svg>
